<svg xmlns="http://www.w3.org/2000/svg" height="100" width="100" xmlns:v="https://vecta.io/nano"><path d="M26 49.1H11.5c-.5 0-1-.3-1.3-.7-.2-.4-.2-.9 0-1.4l8.2-19.2c.2-.6.8-.9 1.4-.9h62a1.54 1.54 0 0 1 1.5 1.5v.1a1.54 1.54 0 0 1-1.5 1.5H35.2l-7.8 18.3c-.3.4-.8.8-1.4.8zm-12.2-3H25l7-16.2H20.8l-7 16.2zm68 3H26c-.5 0-1-.3-1.3-.7s-.3-1-.1-1.4l8.2-19.2c.2-.6.8-.9 1.4-.9h47.6a1.54 1.54 0 0 1 1.5 1.5v19.2a1.54 1.54 0 0 1-1.5 1.5zm-53.5-3h52V29.9H35.2l-6.9 16.2zm3.8 27.7H13.3c-.4 0-.9-.2-1.2-.5s-.4-.8-.3-1.2l4.7-24.7c.1-.7.8-1.2 1.5-1.2h19.2c.5 0 .9.2 1.2.6s.4.8.3 1.3l-5.2 24.7c-.1.5-.7 1-1.4 1zm-16.9-3h15.7l4.5-21.7H19.3l-4.1 21.7zm15.3 10.4H11.9c-.4 0-.9-.2-1.2-.5s-.4-.8-.3-1.2l1.4-7.4c.1-.7.8-1.2 1.5-1.2h18.8c.5 0 .9.2 1.2.6s.4.8.3 1.3L32 80c-.1.7-.7 1.2-1.5 1.2zm-16.8-3h15.6l.9-4.4H14.6l-.9 4.4zm31.2-15H34.3c-.5 0-.9-.2-1.2-.6s-.4-.8-.3-1.3l3-14.2c.1-.7.8-1.2 1.5-1.2h12.6a1.54 1.54 0 0 1 1.5 1.5v9.1c0 3.8-2.9 6.7-6.5 6.7zm-8.8-3h8.7c1.9 0 3.5-1.6 3.5-3.5v-7.6h-9.9l-2.3 11.1zm54.6-20.7h-8.9a1.54 1.54 0 0 1-1.5-1.5v-7.6a1.54 1.54 0 0 1 1.5-1.5h8.9a1.54 1.54 0 0 1 1.5 1.5V38a1.47 1.47 0 0 1-1.5 1.5zm-7.4-3h5.9v-4.6h-5.9v4.6zM72.8 38a1.54 1.54 0 0 0-1.5-1.5H42.1a1.54 1.54 0 0 0-1.5 1.5 1.54 1.54 0 0 0 1.5 1.5h29.2a1.47 1.47 0 0 0 1.5-1.5zm-34-8.1H25.5a1.54 1.54 0 0 1-1.5-1.5v-6.5a1.54 1.54 0 0 1 1.5-1.5h13.3a1.54 1.54 0 0 1 1.5 1.5v6.5a1.54 1.54 0 0 1-1.5 1.5zm-11.8-3h10.3v-3.5H27v3.5z"/></svg>